P1
# Created by GIMP version 2.10.24 PNM plug-in
5 10
01010101000001111111001010101101010101010111111110
