P3
# Example 5 x 4 image
5 5
255
255 0 0   0 0 0    0 0 0          0 0 0    0 255 0
0 0 0     0 0 0    0 0 0          0 0 0    0 0 0
0 0 0     0 0 0    255 255 255    0 0 0    0 0 0
0 0 0     0 0 0    0 0 0          0 0 0    0 0 0
0 0 255   0 0 0    0 0 0          0 0 0    255 255 255
